# xmcd
#
# Track frame offsets:
#	150
#	4415
#	23640
#	41250
#	57748
#	88646
#	112794
#	129966
#	144804
#	167179
#	189735
#	214641
#	232056
#	253428
#	275977
#
# Disc length: 4004 seconds
#
# Revision: 3
# Processed by: cddbd v1.5.2PL0 Copyright (c) Steve Scherf et al.
# Submitted via: audiograbber 1.83.01
#
DISCID=d70fa20f
DTITLE=Coldplay - Live 2012
DYEAR=2012
DGENRE=Rock
TTITLE0=Mylo Xyloto
TTITLE1=Hurts like heaven
TTITLE2=In my place
TTITLE3=Major minus
TTITLE4=Yellow
TTITLE5=God put a smile upon your face
TTITLE6=Princess of China
TTITLE7=Up in flames
TTITLE8=Viva la vida
TTITLE9=Charlie Brown
TTITLE10=Paradise
TTITLE11=Us against the world
TTITLE12=Clocks
TTITLE13=Fix you
TTITLE14=Every teardrop is a waterfall
EXTD=
EXTT0=
EXTT1=
EXTT2=
EXTT3=
EXTT4=
EXTT5=
EXTT6=
EXTT7=
EXTT8=
EXTT9=
EXTT10=
EXTT11=
EXTT12=
EXTT13=
EXTT14=
PLAYORDER=
